{"glyphs":{"0":{"ha":815,"x_min":7,"x_max":798,"o":"m 648 1080 q 798 898 759 1080 l 798 874 q 434 194 798 598 q 157 28 248 28 l 118 28 q 7 178 34 28 l 7 186 q 363 859 79 533 q 458 890 408 890 q 498 859 494 875 l 498 850 q 339 606 498 824 q 181 218 224 395 l 189 218 q 442 494 404 404 q 608 882 608 768 q 529 945 608 945 l 522 945 q 371 914 486 945 q 648 1080 523 1080 z "},"1":{"ha":633,"x_min":7,"x_max":616,"o":"m 522 1080 q 616 977 595 1080 q 458 724 601 918 q 157 138 406 640 q 86 59 99 59 l 47 59 q 7 138 7 77 q 205 677 7 266 l 205 692 q 110 779 125 692 l 110 795 q 292 954 110 877 q 522 1080 460 1080 z "},"2":{"ha":791,"x_min":7,"x_max":774,"o":"m 593 1057 l 616 1057 q 774 930 730 1057 l 774 882 q 355 210 774 674 l 355 201 q 490 233 429 233 l 680 233 l 695 226 q 513 67 693 205 q 118 -67 170 -67 q 7 20 7 -53 l 7 52 q 260 336 7 106 q 624 882 624 748 l 624 914 l 585 922 q 339 827 509 922 l 315 827 q 292 850 304 827 l 292 867 q 537 1048 292 964 q 593 1057 547 1057 z "},"3":{"ha":736,"x_min":7,"x_max":719,"o":"m 505 1064 q 624 977 624 1049 l 624 969 q 371 724 624 869 l 363 708 l 474 708 q 695 606 635 708 q 719 518 719 546 q 371 138 719 300 q 220 115 271 115 l 213 115 q 39 162 39 130 l 39 170 q 545 534 545 387 q 474 558 515 558 l 387 558 q 94 511 348 558 q 15 589 15 529 q 315 827 15 655 q 466 930 450 930 l 466 945 q 54 874 357 945 q 7 930 7 874 q 427 1057 52 1011 q 505 1064 429 1064 z "},"4":{"ha":775,"x_min":7,"x_max":759,"o":"m 695 1120 q 759 1048 744 1120 q 688 416 688 629 q 545 313 640 313 l 498 313 q 347 -28 385 -25 l 308 -36 l 300 -36 q 205 75 216 -36 q 300 336 205 131 q 7 471 7 393 l 7 479 q 189 621 7 539 q 616 1048 576 899 q 695 1120 616 1099 m 237 494 q 363 479 328 479 q 442 645 391 520 l 434 645 l 237 494 z "},"5":{"ha":705,"x_min":7,"x_max":688,"o":"m 481 1080 l 498 1080 q 688 985 620 1080 l 688 962 q 671 945 688 945 l 640 945 q 522 993 571 993 q 347 835 439 993 q 323 811 336 835 l 323 803 l 410 803 q 664 621 664 783 q 332 186 664 427 q 78 83 126 83 l 62 83 q 7 115 20 83 l 7 130 q 229 360 7 203 q 474 621 471 549 l 474 629 q 339 653 400 653 q 181 645 298 653 q 125 692 138 661 l 125 724 q 276 914 125 771 q 481 1080 384 1080 z "},"6":{"ha":720,"x_min":7,"x_max":703,"o":"m 648 1072 l 656 1072 q 703 1040 695 1072 q 537 835 703 1001 q 395 645 466 755 l 395 637 l 522 669 q 695 479 675 669 q 466 130 695 323 q 189 12 292 12 q 7 210 26 12 l 7 218 q 339 843 15 458 q 648 1072 576 1072 m 308 503 q 205 226 205 305 q 213 218 213 226 q 481 463 394 293 l 481 479 q 308 503 423 493 z "},"7":{"ha":831,"x_min":7,"x_max":814,"o":"m 688 1072 l 703 1072 q 774 1001 774 1059 q 553 629 774 939 l 553 621 l 688 621 q 814 550 760 621 l 814 534 q 513 439 777 460 q 379 384 409 439 q 189 20 256 179 q 102 -20 151 -20 q 7 99 7 -20 q 149 399 7 136 l 142 399 q 62 471 62 408 q 284 574 62 532 q 529 882 375 696 l 529 890 q 276 827 374 843 q 165 882 202 827 l 165 914 q 229 954 186 954 l 260 938 l 688 1072 z "},"8":{"ha":720,"x_min":7,"x_max":703,"o":"m 490 1167 q 695 1033 695 1138 q 703 1001 703 1033 l 703 969 q 442 582 690 827 q 513 336 513 409 l 513 313 q 276 59 513 111 l 229 59 q 23 233 66 59 l 23 289 l 7 289 l 7 297 q 244 606 7 372 q 78 898 78 803 q 458 1167 78 1124 l 490 1167 m 220 906 l 220 898 q 347 716 220 844 l 355 716 q 561 1001 561 916 q 490 1025 530 1025 l 442 1025 q 220 906 249 1025 m 110 313 q 197 178 110 178 l 220 178 q 379 328 379 200 q 339 479 379 357 l 323 479 q 110 313 224 387 z "},"9":{"ha":768,"x_min":7,"x_max":751,"o":"m 458 1080 q 490 1048 471 1080 l 490 1017 q 260 787 275 825 l 276 787 q 553 1001 361 787 q 640 1033 595 1033 q 751 922 751 1001 q 553 669 751 840 q 197 154 337 397 q 39 12 92 12 q 15 83 15 42 l 15 146 q 173 542 15 319 q 165 550 173 550 q 7 692 7 580 l 7 716 q 387 1080 7 879 l 458 1080 z "},"\u001d":{"ha":1269,"x_min":0,"x_max":0,"o":""},"\u0000":{"ha":0,"x_min":0,"x_max":0,"o":""}," ":{"ha":610,"x_min":0,"x_max":0,"o":""},"!":{"ha":712,"x_min":7,"x_max":695,"o":"m 616 1120 l 624 1120 q 695 1072 668 1120 l 695 1033 q 474 716 695 1002 q 220 368 300 437 l 205 368 q 142 431 142 376 q 529 1064 142 565 q 616 1120 584 1120 m 165 289 q 260 194 232 289 q 118 52 260 96 l 102 52 q 7 162 18 52 q 165 289 7 254 z "},"\"":{"ha":435,"x_min":7,"x_max":418,"o":"m 157 1135 q 205 1064 195 1135 q 71 740 165 740 l 54 740 q 7 811 7 768 l 7 867 q 142 1135 15 1104 l 157 1135 m 395 1040 q 418 985 418 1012 l 418 914 q 315 740 418 825 q 260 732 284 732 q 197 811 197 753 l 197 827 q 315 1009 213 916 q 395 1040 376 1040 z "},"#":{"ha":1013,"x_min":7,"x_max":996,"o":"m 616 1143 q 656 1112 652 1128 l 656 1088 q 490 795 656 1046 l 490 787 q 711 827 711 787 q 901 1096 867 1085 l 917 1096 q 964 1033 945 1096 q 861 811 964 977 l 861 803 q 996 701 976 803 l 996 684 q 893 597 996 612 l 751 597 q 656 423 656 486 q 735 392 692 404 l 735 376 q 569 281 701 338 q 442 99 511 99 l 427 99 q 355 178 361 99 q 363 257 355 188 l 173 257 q 110 170 142 184 l 86 170 q 31 233 31 170 l 31 257 l 39 273 q 7 304 26 273 l 7 328 q 86 399 7 375 q 149 526 86 418 l 149 542 l 125 542 q 31 621 31 550 l 31 629 q 315 764 31 724 q 616 1143 572 1143 m 474 574 q 498 518 498 534 l 513 518 q 545 574 513 534 l 545 589 l 529 589 q 474 574 474 587 m 300 518 q 252 439 300 505 l 252 431 q 363 455 363 441 q 315 518 342 507 l 300 518 z "},"$":{"ha":831,"x_min":7,"x_max":814,"o":"m 553 1143 l 569 1143 q 593 1096 593 1135 q 537 1001 569 1049 l 537 985 q 688 1017 608 1017 q 751 969 745 1017 q 616 914 751 930 q 197 692 257 781 l 197 684 q 656 613 197 665 q 814 463 814 569 q 276 106 814 302 q 118 -83 210 -83 q 31 12 41 -83 q 54 75 54 65 q 7 106 7 94 l 7 138 q 427 328 31 190 q 632 455 576 402 l 632 463 q 125 550 222 521 q 47 669 54 606 q 339 914 47 793 q 481 1096 368 1006 q 553 1143 509 1143 z "},"%":{"ha":886,"x_min":7,"x_max":869,"o":"m 790 1088 l 798 1088 q 869 1017 869 1078 l 869 993 q 576 732 869 975 q 86 186 315 465 l 47 178 q 7 226 7 194 q 545 914 7 396 q 790 1088 747 1088 m 332 1033 q 418 969 418 1011 q 197 764 418 856 l 173 764 q 86 859 108 764 q 213 993 86 912 q 332 1033 252 1017 m 537 511 q 600 447 573 511 q 458 289 553 289 q 387 360 387 304 l 387 384 q 537 511 387 469 z "},"&":{"ha":1140,"x_min":7,"x_max":1123,"o":"m 561 1206 l 569 1206 q 680 1104 663 1206 l 680 1088 q 490 692 680 971 q 522 589 501 589 l 529 589 q 1020 772 830 756 q 1123 669 1123 743 l 1123 661 q 925 550 1123 564 q 585 368 585 413 q 664 194 664 208 q 624 170 664 176 q 481 313 573 170 l 474 313 q 125 67 386 256 l 78 59 l 62 59 q 7 115 7 59 l 7 138 q 355 692 7 203 q 339 867 339 809 l 339 914 q 561 1206 339 1162 m 458 898 l 458 859 q 576 1088 568 987 q 553 1096 562 1096 q 458 898 458 1055 m 252 345 l 260 345 q 410 503 410 456 q 403 550 410 509 l 395 550 q 252 345 374 543 z "},"'":{"ha":245,"x_min":7,"x_max":229,"o":"m 189 1096 q 229 1025 229 1096 l 229 969 q 94 772 229 880 l 78 772 q 7 835 7 784 q 157 1080 53 1021 l 189 1096 z "},"(":{"ha":752,"x_min":7,"x_max":735,"o":"m 680 1112 q 735 1080 710 1112 q 498 874 735 1065 q 173 241 173 507 q 276 91 173 138 l 276 83 q 173 -4 276 10 l 157 -4 q 7 194 27 -4 l 7 210 q 427 969 7 561 q 680 1112 625 1112 z "},")":{"ha":602,"x_min":7,"x_max":585,"o":"m 339 1128 l 355 1128 q 513 993 414 1128 q 585 724 585 865 q 339 106 585 410 q 47 -36 184 -36 l 23 -36 q 7 -20 7 -36 l 7 -12 q 332 376 294 253 q 427 772 427 579 q 315 1088 427 929 l 315 1104 q 339 1128 315 1115 z "},"*":{"ha":696,"x_min":7,"x_max":680,"o":"m 481 1104 q 513 1080 513 1092 l 513 1064 q 474 938 513 1041 q 585 969 551 969 l 593 969 q 680 930 680 957 q 418 755 680 825 l 418 748 q 529 637 529 703 q 442 558 529 574 q 315 606 426 558 l 300 606 q 173 431 260 480 q 125 518 125 431 q 157 613 125 528 l 149 613 q 7 677 31 613 l 7 701 q 118 803 7 766 l 94 882 l 94 922 q 157 962 115 962 q 268 867 170 962 l 284 867 q 450 1088 311 883 q 481 1104 481 1088 z "},"+":{"ha":680,"x_min":7,"x_max":664,"o":"m 498 803 l 513 779 l 513 755 q 450 558 513 730 l 450 550 q 481 558 454 550 q 664 494 664 518 l 664 479 q 490 376 528 376 q 371 345 371 376 q 276 265 343 265 q 165 376 224 265 q 7 487 7 411 l 7 503 q 78 574 17 574 l 102 574 q 189 558 178 558 l 292 558 q 490 803 446 803 l 498 803 z "},",":{"ha":300,"x_min":7,"x_max":284,"o":"m 244 392 q 284 345 258 392 q 165 123 233 123 q 47 52 102 56 q 7 123 7 52 q 165 360 52 290 q 244 392 227 392 z "},"-":{"ha":530,"x_min":7,"x_max":513,"o":"m 237 606 q 513 550 513 589 l 513 542 q 237 408 513 486 l 189 408 q 7 526 7 408 q 237 606 7 606 z "},".":{"ha":325,"x_min":7,"x_max":308,"o":"m 205 471 l 220 471 q 308 384 286 471 l 308 376 q 142 178 308 267 l 110 178 q 7 273 7 200 l 7 304 q 165 463 7 388 q 205 471 178 471 z "},"/":{"ha":800,"x_min":7,"x_max":783,"o":"m 751 1120 l 759 1120 q 783 1088 770 1120 q 339 423 771 974 q 78 91 148 150 l 39 91 q 7 123 26 91 l 7 146 q 561 985 7 293 q 751 1120 701 1120 z "},":":{"ha":332,"x_min":7,"x_max":315,"o":"m 229 779 q 315 692 315 766 l 315 684 q 134 542 315 589 l 125 542 q 62 613 62 563 l 62 621 q 213 779 62 721 l 229 779 m 142 399 l 157 399 q 220 336 220 399 l 220 321 q 110 186 197 186 l 86 186 q 7 265 7 201 l 7 273 q 142 399 7 354 z "},";":{"ha":356,"x_min":7,"x_max":339,"o":"m 252 779 l 268 779 q 339 701 328 779 l 339 692 q 197 550 339 614 q 157 542 184 542 l 149 542 q 71 621 71 557 l 71 645 q 252 779 71 738 m 229 399 q 276 328 266 399 q 142 75 269 250 q 7 4 28 4 l 7 12 q 125 313 7 193 q 229 399 167 399 z "},"<":{"ha":530,"x_min":7,"x_max":513,"o":"m 466 708 q 513 677 513 692 l 513 669 q 363 566 513 609 q 220 487 220 497 q 490 304 309 478 q 513 250 513 259 l 498 241 l 490 241 q 62 384 347 241 q 7 487 7 439 q 315 653 7 577 q 466 708 315 664 z "},"=":{"ha":649,"x_min":7,"x_max":632,"o":"m 434 811 q 632 732 571 811 l 632 724 q 276 645 632 667 l 165 645 q 125 684 155 645 l 125 692 q 332 795 125 770 q 434 811 367 811 m 332 582 l 569 542 q 308 423 569 517 q 125 392 179 392 q 7 463 7 392 l 7 479 q 332 582 31 547 z "},">":{"ha":625,"x_min":7,"x_max":608,"o":"m 47 701 l 54 701 q 608 479 608 630 q 252 273 608 333 l 244 273 q 125 304 125 273 q 355 463 256 445 l 355 479 q 7 653 7 556 q 47 701 18 686 z "},"?":{"ha":807,"x_min":7,"x_max":790,"o":"m 474 1152 l 561 1152 q 783 1048 727 1152 l 790 1001 l 790 969 q 379 503 776 840 l 300 416 l 308 368 q 134 250 308 286 q 7 392 7 269 q 387 772 7 499 q 616 977 570 920 q 505 1001 616 996 q 157 938 345 985 q 110 993 110 958 q 474 1152 110 1105 m 197 241 q 292 130 292 221 q 149 20 292 43 l 134 20 q 47 106 47 38 l 47 138 q 197 241 47 220 z "},"@":{"ha":1092,"x_min":7,"x_max":1075,"o":"m 798 1175 l 861 1175 q 1044 977 1022 1175 q 743 487 1044 741 q 648 408 694 469 q 466 368 607 408 q 332 494 332 385 l 332 503 q 569 874 332 686 q 664 898 621 898 q 727 819 727 877 l 727 811 q 703 653 727 764 l 711 653 q 893 985 893 830 l 893 1001 q 814 1033 893 1025 q 347 803 616 1033 q 173 423 173 604 q 332 241 173 275 l 379 241 q 1075 455 581 241 q 861 186 1059 361 q 379 43 660 43 q 39 250 155 43 q 7 384 7 323 l 7 423 q 403 1033 7 738 q 798 1175 645 1175 m 458 518 l 458 511 l 474 511 q 585 589 585 530 q 616 772 616 751 l 608 772 q 458 518 458 635 z "},"A":{"ha":934,"x_min":7,"x_max":917,"o":"m 846 1215 q 917 1135 917 1198 q 640 534 884 1049 q 576 352 576 378 q 600 194 600 254 q 434 -52 600 5 q 308 99 308 -16 q 371 352 308 134 q 323 368 338 368 q 71 20 119 68 l 31 20 q 7 43 19 20 l 7 75 q 213 447 7 110 q 189 534 189 491 q 355 653 189 633 q 735 1143 462 840 q 846 1215 802 1211 z "},"B":{"ha":823,"x_min":7,"x_max":806,"o":"m 632 1104 l 671 1104 q 798 954 798 1069 q 600 653 798 827 l 600 645 q 806 376 806 569 q 442 -28 806 104 q 379 -36 399 -36 q 173 83 226 -36 l 157 83 q 54 12 101 12 q 7 59 31 12 q 268 645 167 404 q 632 1104 450 1104 m 505 795 q 632 938 587 842 l 616 938 q 505 795 543 880 m 268 257 q 387 186 336 186 q 616 328 511 186 q 632 376 632 354 l 632 408 q 458 511 610 511 q 339 423 339 511 q 268 257 268 292 z "},"C":{"ha":839,"x_min":7,"x_max":822,"o":"m 680 1135 l 703 1135 q 822 1025 822 1120 l 822 1001 q 680 677 822 835 l 656 677 q 640 701 640 677 l 703 1001 q 695 1009 695 1001 q 442 748 589 961 q 181 201 210 382 l 181 154 q 260 123 181 130 q 537 146 524 146 l 545 130 q 205 -36 359 -36 q 7 194 7 -36 q 387 922 46 464 q 680 1135 583 1135 z "},"D":{"ha":768,"x_min":7,"x_max":751,"o":"m 466 1128 q 711 732 558 1128 q 751 494 751 589 q 466 20 751 132 q 363 4 431 4 l 347 4 q 118 123 229 4 q 31 67 79 67 q 7 91 19 67 l 7 106 q 125 345 7 151 q 347 922 260 587 q 450 1128 376 1128 l 466 1128 m 213 233 q 355 194 224 205 q 569 471 569 232 l 569 518 q 490 835 569 645 l 481 835 q 387 550 469 833 q 213 233 290 347 z "},"E":{"ha":863,"x_min":7,"x_max":846,"o":"m 593 1120 q 846 859 711 1120 l 846 835 q 806 795 843 814 q 616 954 772 795 l 600 954 q 505 724 505 756 l 513 724 q 782 642 782 700 q 410 534 715 555 l 284 233 l 292 233 q 458 257 421 257 l 537 257 q 640 178 640 248 l 640 162 q 332 43 640 69 q 94 -52 109 -52 q 7 35 7 -26 l 7 43 q 142 321 7 83 l 220 511 l 220 518 l 213 518 q 128 599 128 511 q 332 740 176 718 q 576 1120 471 1120 l 593 1120 z "},"F":{"ha":1076,"x_min":7,"x_max":1059,"o":"m 917 1112 l 956 1112 q 1059 1025 1059 1112 q 878 938 1059 938 q 608 819 647 938 q 442 534 442 582 q 743 408 743 511 q 648 304 730 304 q 339 368 511 304 q 71 4 127 40 l 62 4 q 7 59 7 4 q 213 447 7 106 l 213 455 q 189 550 189 530 l 189 597 q 371 914 199 722 l 371 922 q 300 1001 313 922 q 403 1088 300 1069 q 553 1080 427 1088 l 917 1112 z "},"G":{"ha":807,"x_min":7,"x_max":790,"o":"m 664 969 q 743 890 730 969 q 688 843 730 843 l 664 859 q 276 566 469 809 q 157 345 157 405 q 189 321 165 321 q 671 613 366 321 q 750 606 711 633 q 790 526 790 578 q 513 35 747 438 q 403 -115 513 -81 l 387 -115 q 292 -4 302 -115 q 332 186 332 138 l 323 186 l 197 162 q 7 321 7 185 l 7 336 q 379 859 7 562 q 664 969 551 969 z "},"H":{"ha":958,"x_min":7,"x_max":941,"o":"m 593 1096 l 608 1096 q 632 1072 620 1096 l 632 1064 q 458 669 632 1029 q 434 606 434 629 q 711 898 587 694 q 846 1040 776 1040 l 854 1040 q 941 954 941 1027 l 941 945 q 593 146 941 890 q 442 -52 519 -52 q 371 52 384 -52 l 371 75 q 474 416 371 170 l 466 416 q 315 352 326 364 q 149 91 229 91 l 118 91 q 7 345 7 91 q 86 621 7 621 q 110 629 86 629 q 205 550 152 629 l 220 550 q 593 1096 503 1096 z "},"I":{"ha":412,"x_min":7,"x_max":395,"o":"m 347 945 l 363 945 q 395 882 395 935 q 157 162 395 705 q 94 130 124 130 l 86 130 q 7 226 15 130 q 308 890 31 302 q 347 945 308 922 z "},"J":{"ha":610,"x_min":7,"x_max":593,"o":"m 481 1072 q 593 969 593 1051 l 593 945 q 481 716 593 927 q 268 52 418 572 q 149 -75 218 -75 l 142 -75 q 15 154 15 -75 q 7 534 7 383 q 62 574 7 561 q 134 408 112 574 q 205 637 147 408 q 466 1064 363 1064 l 481 1072 z "},"K":{"ha":973,"x_min":7,"x_max":956,"o":"m 751 1159 l 783 1159 q 806 1135 794 1159 l 806 1112 q 585 724 806 1052 l 585 716 q 885 969 833 969 q 956 898 956 959 q 806 724 956 853 q 561 201 561 414 q 600 99 593 99 q 513 35 584 35 q 379 194 405 35 l 379 289 q 125 -60 294 201 q 78 -75 100 -75 q 7 4 15 -75 q 466 779 98 235 q 735 1152 475 780 l 751 1159 z "},"L":{"ha":641,"x_min":7,"x_max":624,"o":"m 569 1040 l 600 1040 q 624 1001 618 1040 q 300 384 624 931 q 173 106 245 295 q 181 99 181 106 q 434 130 249 115 l 434 123 q 149 -60 240 -60 q 7 83 7 -41 l 7 99 q 537 1001 53 337 q 569 1040 553 1037 z "},"M":{"ha":863,"x_min":7,"x_max":846,"o":"m 434 1199 q 505 1135 505 1184 q 315 621 505 1114 l 292 542 l 300 542 q 688 1104 401 663 q 783 1167 737 1167 q 846 1104 846 1167 l 846 1088 q 600 542 822 975 q 410 83 529 399 q 363 35 372 35 l 355 35 q 276 130 294 35 l 276 162 q 308 336 276 190 q 244 321 279 321 l 229 321 q 165 345 205 321 q 78 162 107 177 l 47 162 q 7 233 7 184 q 347 1112 171 821 q 434 1199 390 1183 z "},"N":{"ha":823,"x_min":7,"x_max":806,"o":"m 490 1223 q 545 1159 537 1223 q 387 360 387 572 q 648 898 505 550 q 759 1057 745 1057 l 774 1057 q 806 1009 790 1057 q 513 201 806 661 q 332 99 437 99 q 205 313 205 127 q 86 91 189 307 l 47 83 q 7 130 7 83 l 7 138 q 220 701 64 363 q 450 1215 395 1128 l 490 1223 z "},"O":{"ha":815,"x_min":7,"x_max":798,"o":"m 648 1080 q 798 898 759 1080 l 798 874 q 434 194 798 598 q 157 28 248 28 l 118 28 q 7 178 34 28 l 7 186 q 363 859 79 533 q 458 890 408 890 q 498 859 494 875 l 498 850 q 339 606 498 824 q 181 218 224 395 l 189 218 q 442 494 404 404 q 608 882 608 768 q 529 945 608 945 l 522 945 q 371 914 486 945 q 648 1080 523 1080 z "},"P":{"ha":1060,"x_min":7,"x_max":1044,"o":"m 846 1175 q 1044 969 1020 1175 q 727 542 1044 758 q 513 479 606 479 l 481 479 q 347 503 450 479 q 110 67 125 83 l 71 59 l 54 59 q 7 123 23 70 q 481 1001 266 775 q 846 1175 668 1175 m 410 597 l 418 597 q 798 835 653 684 q 885 1001 885 949 q 830 1040 874 1040 l 814 1040 q 537 859 698 1040 q 410 597 410 612 z "},"Q":{"ha":847,"x_min":7,"x_max":830,"o":"m 671 985 q 830 835 830 964 l 830 811 q 600 250 830 627 q 608 162 608 179 q 450 67 575 67 q 181 -75 314 -75 q 7 130 33 -75 l 7 162 q 220 684 19 356 q 490 922 402 922 q 671 985 602 985 m 450 392 l 466 384 q 632 779 632 692 q 450 392 478 736 m 276 550 q 173 154 173 321 l 173 146 q 197 99 178 99 q 315 186 250 121 q 268 384 268 304 q 284 542 268 406 l 284 550 l 276 550 z "},"R":{"ha":863,"x_min":7,"x_max":846,"o":"m 711 1175 q 846 1033 824 1175 q 371 494 846 795 q 284 416 284 427 l 284 408 q 505 170 284 362 q 522 138 507 138 q 371 91 522 91 q 189 218 281 91 l 181 218 q 102 43 172 218 q 54 28 76 28 q 7 91 7 44 q 434 1001 94 553 q 711 1175 593 1175 m 403 716 l 403 701 q 703 1033 703 913 l 695 1033 q 403 716 594 1033 z "},"S":{"ha":730,"x_min":7,"x_max":713,"o":"m 638 1040 q 674 1015 638 1040 q 713 937 709 989 q 688 885 707 892 q 509 946 620 982 q 403 801 398 911 l 401 793 q 485 443 393 764 q 486 153 531 296 q 309 -41 441 10 q 96 -25 177 -93 q 11 158 14 43 q 83 216 7 273 q 213 180 159 159 q 291 293 268 201 q 273 624 319 403 q 292 944 227 844 q 462 1066 357 1043 q 638 1040 566 1090 z "},"T":{"ha":965,"x_min":7,"x_max":948,"o":"m 115 1126 q 521 1074 406 1072 l 814 1074 q 948 979 948 1074 q 751 892 948 906 q 418 914 707 892 l 418 874 q 458 890 444 890 q 498 835 498 879 l 498 819 q 252 328 498 735 q 102 99 173 99 q 7 194 7 116 q 244 795 7 409 q 300 938 300 883 q 44 1031 44 989 l 44 1055 q 115 1126 57 1126 z "},"U":{"ha":902,"x_min":7,"x_max":885,"o":"m 806 1191 q 885 1112 885 1180 l 885 1096 q 671 669 885 1053 q 548 286 576 416 q 490 28 520 155 q 399 -88 460 -99 q 332 20 337 -77 q 339 194 339 125 l 332 194 q 142 83 218 83 l 118 83 q 7 218 28 83 l 7 250 q 276 1009 7 469 l 268 1025 l 268 1033 q 347 1120 286 1120 l 371 1120 q 403 1048 403 1109 q 181 439 403 1020 q 157 281 157 324 l 157 257 l 165 257 q 458 645 343 427 q 806 1191 681 1191 z "},"V":{"ha":783,"x_min":7,"x_max":766,"o":"m 695 1120 q 766 1048 766 1109 l 766 1040 q 608 779 766 983 q 181 52 396 435 q 102 12 136 12 q 7 123 18 12 l 7 130 q 157 1009 7 288 q 197 1033 157 1033 q 260 914 260 1033 q 220 503 260 808 l 498 945 q 688 1120 625 1120 l 695 1120 z "},"W":{"ha":997,"x_min":7,"x_max":980,"o":"m 901 1017 l 941 1017 q 980 945 962 1017 q 711 408 980 916 q 442 -67 495 -67 q 387 -91 387 -86 q 284 43 302 -91 l 355 431 q 157 123 175 132 q 78 99 130 99 q 7 201 7 122 q 237 985 7 425 q 284 1009 267 1009 q 332 962 304 1009 q 237 574 332 956 l 237 566 l 244 566 q 450 779 359 779 l 474 779 q 569 589 569 779 l 576 589 q 861 1009 635 756 l 901 1017 z "},"X":{"ha":989,"x_min":7,"x_max":972,"o":"m 885 1238 q 972 1152 972 1217 l 972 1120 q 522 487 972 1061 q 466 408 466 427 q 608 257 466 369 q 624 210 624 231 q 545 115 614 115 q 371 130 414 130 q 94 52 265 130 l 71 52 q 7 130 7 73 l 7 138 q 197 384 7 176 l 244 439 l 244 455 q 173 977 205 612 q 229 1057 173 1040 q 347 740 276 1057 q 395 629 387 629 l 403 629 q 846 1223 774 1154 q 885 1238 885 1230 z "},"Y":{"ha":949,"x_min":7,"x_max":932,"o":"m 861 1199 q 932 1128 932 1189 q 616 684 932 1082 q 505 526 616 673 q 157 59 192 92 q 110 43 132 43 l 94 43 q 7 146 21 43 q 308 582 7 195 q 387 692 387 684 l 379 692 q 260 661 301 661 q 118 811 134 661 q 260 1088 176 1088 q 276 1072 276 1086 q 237 850 237 910 l 237 819 l 252 795 q 766 1128 379 795 q 861 1199 822 1199 z "},"Z":{"ha":934,"x_min":7,"x_max":917,"o":"m 783 1096 q 917 993 917 1072 l 917 977 q 569 526 917 819 l 276 226 l 403 226 q 671 146 559 226 q 165 12 512 12 q 7 138 7 40 l 7 170 q 481 701 7 293 q 735 945 735 936 l 735 962 q 252 867 603 962 l 244 867 q 189 922 189 867 q 450 1033 189 980 q 783 1096 575 1080 z "},"[":{"ha":854,"x_min":7,"x_max":838,"o":"m 743 1167 q 838 1048 838 1135 q 806 1001 822 1001 l 783 1001 l 735 1048 l 727 1048 q 268 226 708 1034 q 237 178 263 226 l 237 162 q 332 75 332 140 l 332 59 q 244 -20 332 -4 l 237 -20 q 7 91 7 9 l 7 106 q 229 447 7 144 q 656 1128 612 1126 q 743 1167 691 1167 z "},"\\":{"ha":277,"x_min":7,"x_max":260,"o":"m 39 985 q 260 162 199 985 q 220 67 249 67 q 94 226 155 67 q 31 850 71 326 q 7 945 21 850 q 39 985 22 982 z "},"]":{"ha":728,"x_min":7,"x_max":711,"o":"m 640 1112 q 711 1033 711 1084 l 711 1001 q 481 526 695 941 q 300 -4 410 336 q 118 -99 233 -99 q 7 12 39 -99 q 142 106 7 83 q 379 701 172 159 l 553 1001 l 545 1001 l 268 962 q 220 993 220 977 l 220 1017 q 640 1112 220 1044 z "},"^":{"ha":459,"x_min":7,"x_max":442,"o":"m 355 1120 q 442 1025 427 1120 q 284 526 366 620 l 276 526 q 173 653 173 549 l 173 787 q 62 716 103 716 q 7 779 13 716 q 284 1096 7 857 q 355 1120 314 1120 z "},"_":{"ha":1140,"x_min":7,"x_max":1123,"o":"m 711 273 q 1123 138 1123 273 l 1123 123 q 980 59 1123 88 l 695 83 q 608 75 642 75 q 78 59 469 75 q 7 99 7 77 l 7 106 q 711 273 7 235 z "},"{":{"ha":720,"x_min":7,"x_max":703,"o":"m 648 1128 q 703 1064 695 1128 q 593 1040 690 1048 q 363 787 363 910 l 363 779 l 387 669 q 268 550 387 594 l 276 511 l 276 471 q 173 138 276 414 q 94 -4 173 -4 q 7 83 7 9 l 7 123 q 125 431 7 163 q 142 479 134 479 q 62 550 142 488 l 62 606 q 244 684 62 640 l 244 795 q 529 1096 244 958 q 648 1128 573 1114 z "},"|":{"ha":388,"x_min":7,"x_max":371,"o":"m 332 1096 l 339 1096 q 371 1025 356 1096 q 134 35 315 667 q 71 4 108 16 q 7 75 19 4 l 7 83 q 205 882 110 603 q 332 1096 292 1082 z "},"}":{"ha":649,"x_min":7,"x_max":632,"o":"m 355 1128 q 632 922 632 1082 q 315 606 632 787 l 315 589 q 339 487 339 551 l 339 408 q 157 59 339 238 q 62 35 92 35 q 7 99 7 52 q 173 328 7 123 q 197 399 186 354 q 165 582 189 519 l 165 597 q 434 835 165 684 q 505 930 505 896 q 308 1064 505 975 l 308 1104 q 355 1128 315 1128 z "},"~":{"ha":657,"x_min":7,"x_max":640,"o":"m 252 803 q 323 716 323 777 l 323 606 l 332 589 q 632 708 588 708 q 640 684 640 693 q 474 447 640 635 q 315 360 397 360 l 276 360 q 149 494 176 360 l 134 494 q 62 439 104 457 q 7 494 7 454 q 252 803 134 803 z "},"¢":{"ha":570,"x_min":7,"x_max":553,"o":"m 466 1048 q 498 993 498 1036 q 442 819 486 911 q 513 755 513 810 q 268 661 352 716 q 157 518 157 565 q 229 503 194 503 q 481 518 422 518 q 553 494 553 513 l 553 487 q 244 352 553 352 q 110 154 173 154 l 102 154 q 54 226 71 154 l 118 376 q 7 518 7 421 q 252 795 7 648 q 418 1048 252 850 l 466 1048 z "},"£":{"ha":918,"x_min":7,"x_max":901,"o":"m 766 1080 l 790 1080 q 878 977 863 1080 q 814 850 878 901 l 798 850 q 774 922 774 850 l 766 922 q 576 645 669 817 l 585 645 q 648 558 648 611 q 553 447 648 481 q 403 392 403 447 q 395 384 395 392 l 395 368 q 830 297 562 321 q 901 218 901 262 q 783 130 878 130 l 600 130 q 276 210 559 130 q 110 91 210 91 q 7 201 33 91 q 142 399 7 347 q 252 463 227 399 q 189 566 189 505 q 387 653 189 626 q 766 1080 654 1080 z "},"©":{"ha":997,"x_min":7,"x_max":980,"o":"m 640 1072 q 688 1040 671 1072 l 688 1017 q 522 938 686 1001 q 149 376 149 624 q 252 289 149 289 q 751 606 526 289 q 798 779 798 708 q 624 867 798 851 l 624 874 q 814 977 727 977 q 980 835 935 977 l 980 748 q 656 250 980 485 q 276 130 429 130 q 39 250 115 130 q 7 345 7 296 l 7 360 q 371 962 7 664 q 640 1072 520 1072 m 522 724 q 561 692 557 709 l 561 669 q 434 526 437 557 q 585 479 523 479 q 403 368 503 368 q 276 479 276 393 l 276 518 q 498 724 276 634 l 522 724 z "},"®":{"ha":1116,"x_min":7,"x_max":1099,"o":"m 735 1017 q 783 977 768 1006 l 783 954 q 640 898 783 930 q 339 661 453 795 q 165 352 177 475 l 165 345 q 229 273 165 273 q 505 345 335 273 l 505 360 q 418 439 487 360 q 371 423 393 423 q 308 487 329 423 q 545 748 308 546 q 576 755 559 755 q 648 684 648 742 l 648 677 q 593 550 648 656 q 751 494 617 534 q 917 732 917 644 q 790 779 850 776 l 790 787 q 956 859 790 815 l 980 859 q 1099 708 1078 859 q 703 241 1099 479 q 237 106 429 106 q 23 233 91 106 q 7 352 7 308 q 332 835 7 537 q 735 1017 579 1017 z "},"‘":{"ha":300,"x_min":7,"x_max":284,"o":"m 47 824 q 7 871 33 824 q 125 1093 58 1093 q 244 1164 189 1159 q 284 1093 284 1164 q 125 856 239 925 q 47 824 64 824 z "},"’":{"ha":300,"x_min":7,"x_max":284,"o":"m 244 1164 q 284 1117 258 1164 q 165 895 233 895 q 47 824 102 829 q 7 895 7 824 q 165 1133 52 1063 q 244 1164 227 1164 z "},"“":{"ha":688,"x_min":7,"x_max":672,"o":"m 47 824 q 7 871 33 824 q 125 1093 58 1093 q 244 1164 189 1159 q 284 1093 284 1164 q 125 856 239 925 q 47 824 64 824 m 435 824 q 395 871 420 824 q 513 1093 446 1093 q 632 1164 576 1159 q 672 1093 672 1164 q 513 856 627 925 q 435 824 452 824 z "},"”":{"ha":688,"x_min":7,"x_max":672,"o":"m 244 1164 q 284 1117 258 1164 q 165 895 233 895 q 47 824 102 829 q 7 895 7 824 q 165 1133 52 1063 q 244 1164 227 1164 m 632 1164 q 672 1117 646 1164 q 553 895 621 895 q 435 824 490 829 q 395 895 395 824 q 553 1133 439 1063 q 632 1164 614 1164 z "},"…":{"ha":1201,"x_min":7,"x_max":1184,"o":"m 289 427 l 302 420 q 342 348 342 397 q 334 300 342 327 l 330 294 q 108 205 279 205 q 87 205 98 205 l 60 221 q 7 314 7 269 q 18 355 7 335 l 34 382 q 196 443 69 443 q 250 440 222 443 l 251 440 q 289 427 267 440 m 710 427 l 724 420 q 763 348 763 397 q 755 300 763 327 l 751 294 q 528 205 700 205 q 509 205 519 205 l 481 221 q 428 314 428 269 q 439 355 428 335 l 455 382 q 617 443 490 443 q 671 440 643 443 l 672 440 q 710 427 688 440 m 1131 427 l 1145 420 q 1184 348 1184 397 q 1177 300 1184 327 l 1173 294 q 949 205 1121 205 q 930 205 940 205 l 902 221 q 849 314 849 269 q 861 355 849 335 l 876 382 q 1038 443 911 443 q 1093 440 1064 443 l 1093 440 q 1131 427 1109 440 z "},"€":{"ha":1092,"x_min":7,"x_max":1075,"o":"m 956 1080 l 964 1080 q 1075 1025 1041 1080 l 1075 985 q 1044 962 1075 973 q 996 985 996 977 q 624 795 844 985 q 878 811 751 811 l 901 811 q 1020 724 1020 798 l 1020 716 q 553 613 1020 633 q 395 542 395 597 l 403 542 q 814 574 721 574 q 956 511 901 574 q 671 416 863 416 q 300 352 651 408 l 300 273 q 450 201 342 201 l 481 201 q 861 226 827 226 q 917 210 902 210 q 576 35 917 118 l 442 35 q 142 226 219 35 q 134 297 134 269 l 134 345 l 86 345 q 7 384 25 345 q 189 503 7 446 q 220 566 189 522 l 220 582 l 149 582 q 86 629 106 582 q 347 740 86 693 q 956 1080 688 1080 z "},"™":{"ha":705,"x_min":7,"x_max":688,"o":"m 600 1033 q 688 930 669 1033 q 481 661 615 661 q 450 732 450 726 l 410 724 l 379 724 q 371 732 371 724 q 244 677 297 677 q 181 724 216 685 l 173 724 q 94 645 173 680 q 23 708 49 645 q 39 859 39 804 l 7 898 l 7 930 q 197 977 7 951 q 237 1017 197 985 q 276 1001 262 1001 l 363 1025 q 442 954 397 1025 q 600 1033 533 1033 z "}}}
